<svg width="18" height="18" viewBox="0 0 18 18" fill="none" xmlns="http://www.w3.org/2000/svg">
<path d="M8.42922 8.09501C10.2131 8.09501 11.6592 6.64889 11.6592 4.86501C11.6592 3.08113 10.2131 1.63501 8.42922 1.63501C6.64534 1.63501 5.19922 3.08113 5.19922 4.86501C5.19922 6.64889 6.64534 8.09501 8.42922 8.09501Z" fill="white"/>
<path d="M10.5 14H14V14.7H10.5V14Z" fill="white"/>
<path d="M7.50032 15.0001V16.5001C7.50032 16.6327 7.553 16.7599 7.64677 16.8537C7.74054 16.9474 7.86771 17.0001 8.00032 17.0001H16.5003C16.6329 17.0001 16.7601 16.9474 16.8539 16.8537C16.9476 16.7599 17.0003 16.6327 17.0003 16.5001V11.5001C17.0003 11.3675 16.9476 11.2403 16.8539 11.1466C16.7601 11.0528 16.6329 11.0001 16.5003 11.0001H13.0003V10.2651C13.0003 10.1325 12.9476 10.0053 12.8539 9.91156C12.7601 9.8178 12.6329 9.76512 12.5003 9.76512C12.3677 9.76512 12.2405 9.8178 12.1468 9.91156C12.053 10.0053 12.0003 10.1325 12.0003 10.2651V11.0001H11.0003V9.21012C10.1507 9.07109 9.29124 9.00086 8.43032 9.00012C6.53172 8.99204 4.65439 9.39993 2.93032 10.1951C2.64656 10.329 2.40717 10.5415 2.24056 10.8074C2.07394 11.0733 1.9871 11.3814 1.99032 11.6951V15.0001H7.50032ZM16.0003 16.0001H8.50032V12.0001H12.0003V12.2101C12.0003 12.3427 12.053 12.4699 12.1468 12.5637C12.2405 12.6574 12.3677 12.7101 12.5003 12.7101C12.6329 12.7101 12.7601 12.6574 12.8539 12.5637C12.9476 12.4699 13.0003 12.3427 13.0003 12.2101V12.0001H16.0003V16.0001Z" fill="white"/>
</svg>
