<svg width="24" height="24" viewBox="0 0 24 24" fill="none" xmlns="http://www.w3.org/2000/svg">
<path d="M13.61 12.243C13.604 12.5598 13.504 12.8677 13.3228 13.1276C13.1416 13.3875 12.8873 13.5878 12.5921 13.703C12.297 13.8182 11.9743 13.8432 11.6649 13.7748C11.3555 13.7064 11.0734 13.5477 10.8544 13.3188C10.6353 13.0899 10.4891 12.8011 10.4344 12.4891C10.3796 12.177 10.4187 11.8557 10.5468 11.5659C10.6749 11.2761 10.8861 11.0308 11.1537 10.8612C11.4213 10.6915 11.7332 10.6052 12.05 10.613C12.4709 10.6286 12.8692 10.8075 13.1604 11.1118C13.4516 11.4161 13.6129 11.8219 13.61 12.243Z" fill="#FF4545"/>
<path d="M14.763 7.23291H9.33797C8.80117 7.23291 8.28635 7.44615 7.90678 7.82573C7.52721 8.2053 7.31396 8.72011 7.31396 9.25691V14.8039C7.31396 15.0697 7.36632 15.3329 7.46803 15.5785C7.56975 15.824 7.71883 16.0471 7.90678 16.2351C8.09473 16.423 8.31785 16.5721 8.56341 16.6738C8.80898 16.7756 9.07217 16.8279 9.33797 16.8279H14.763C15.0288 16.8279 15.292 16.7756 15.5375 16.6738C15.7831 16.5721 16.0062 16.423 16.1941 16.2351C16.3821 16.0471 16.5312 15.824 16.6329 15.5785C16.7346 15.3329 16.787 15.0697 16.787 14.8039V9.26691C16.788 9.00035 16.7365 8.7362 16.6352 8.4896C16.534 8.243 16.3851 8.0188 16.1971 7.82985C16.0091 7.64089 15.7856 7.4909 15.5395 7.38847C15.2934 7.28603 15.0295 7.23317 14.763 7.23291ZM12.05 14.9559C11.5129 14.968 10.9845 14.8199 10.532 14.5303C10.0795 14.2408 9.72362 13.823 9.50965 13.3303C9.29568 12.8376 9.23338 12.2923 9.33068 11.764C9.42799 11.2357 9.68049 10.7484 10.056 10.3642C10.4314 9.98008 10.9129 9.71652 11.4388 9.60718C11.9647 9.49785 12.5113 9.54769 13.0088 9.75036C13.5062 9.95303 13.9321 10.2993 14.2318 10.7451C14.5316 11.1908 14.6918 11.7157 14.692 12.2529C14.6963 12.604 14.6314 12.9524 14.5009 13.2784C14.3704 13.6043 14.177 13.9013 13.9316 14.1524C13.6862 14.4034 13.3937 14.6036 13.0708 14.7415C12.7479 14.8794 12.401 14.9523 12.05 14.9559ZM14.986 9.55091C14.92 9.55092 14.8547 9.53777 14.7938 9.51222C14.733 9.48667 14.6778 9.44924 14.6317 9.40212C14.5855 9.355 14.5491 9.29913 14.5248 9.23779C14.5005 9.17646 14.4886 9.11088 14.49 9.04491C14.49 8.91071 14.5433 8.78201 14.6382 8.68711C14.7331 8.59222 14.8618 8.53891 14.996 8.53891C15.1302 8.53891 15.2589 8.59222 15.3538 8.68711C15.4487 8.78201 15.502 8.91071 15.502 9.04491C15.504 9.11635 15.4905 9.18737 15.4625 9.25311C15.4345 9.31886 15.3926 9.37778 15.3397 9.42583C15.2868 9.47388 15.2241 9.50994 15.156 9.53153C15.0879 9.55311 15.0159 9.55973 14.945 9.55091H14.986Z" fill="#FF4545"/>
<path d="M12.05 1.99988C9.39784 1.98662 6.84903 3.02747 4.96429 4.89346C3.07955 6.75944 2.01326 9.29772 2 11.9499C1.98674 14.602 3.02759 17.1509 4.89358 19.0356C6.75957 20.9203 9.29784 21.9866 11.95 21.9999C13.2632 22.0064 14.5649 21.7543 15.7806 21.2578C16.9964 20.7613 18.1025 20.0302 19.0357 19.1063C19.9689 18.1824 20.7111 17.0837 21.2197 15.8729C21.7283 14.6622 21.9934 13.3631 22 12.0499C22.0066 10.7367 21.7544 9.43501 21.2579 8.21924C20.7615 7.00347 20.0304 5.8974 19.1064 4.96417C18.1825 4.03094 17.0838 3.28883 15.873 2.78022C14.6623 2.27161 13.3632 2.00645 12.05 1.99988ZM18.123 14.7019C18.1258 15.1505 18.0395 15.5952 17.8691 16.0103C17.6988 16.4253 17.4477 16.8024 17.1305 17.1197C16.8133 17.437 16.4363 17.6881 16.0213 17.8586C15.6063 18.0291 15.1616 18.1155 14.713 18.1129H9.389C8.94037 18.1157 8.49565 18.0294 8.08061 17.859C7.66558 17.6886 7.28849 17.4376 6.9712 17.1204C6.65392 16.8032 6.40275 16.4262 6.23226 16.0112C6.06177 15.5962 5.97535 15.1515 5.978 14.7029V9.37788C5.97522 8.92925 6.06151 8.48452 6.23188 8.06949C6.40225 7.65445 6.6533 7.27737 6.97049 6.96008C7.28769 6.6428 7.6647 6.39163 8.07969 6.22114C8.49467 6.05065 8.93937 5.96423 9.388 5.96688H14.713C15.1616 5.96423 15.6062 6.05062 16.0211 6.22105C16.436 6.39147 16.813 6.64255 17.1302 6.95973C17.4473 7.27691 17.6984 7.65388 17.8688 8.0688C18.0393 8.48372 18.1257 8.92833 18.123 9.37688V14.7019Z" fill="#FF4545"/>
</svg>
