<svg width="22" height="19" viewBox="0 0 22 19" fill="none" xmlns="http://www.w3.org/2000/svg">
<path d="M8.70833 12.6667C7.04306 12.6667 5.63383 12.1684 4.48067 11.172C3.3275 10.1756 2.75061 8.9585 2.75 7.52083C2.74939 6.08317 3.32628 4.86611 4.48067 3.86967C5.63506 2.87322 7.04428 2.375 8.70833 2.375C10.3724 2.375 11.7819 2.87322 12.9369 3.86967C14.0919 4.86611 14.6685 6.08317 14.6667 7.52083C14.6667 8.10139 14.5597 8.64896 14.3458 9.16354C14.1319 9.67812 13.8417 10.1333 13.475 10.5292L18.6083 14.9625C18.7764 15.1076 18.8604 15.2924 18.8604 15.5167C18.8604 15.741 18.7764 15.9257 18.6083 16.0708C18.4403 16.216 18.2264 16.2885 17.9667 16.2885C17.7069 16.2885 17.4931 16.216 17.325 16.0708L12.1917 11.6375C11.7333 11.9542 11.2063 12.2049 10.6104 12.3896C10.0146 12.5743 9.38056 12.6667 8.70833 12.6667ZM8.70833 11.0833C9.85417 11.0833 10.8283 10.7371 11.6307 10.0447C12.4331 9.35222 12.8339 8.51094 12.8333 7.52083C12.8327 6.53072 12.4318 5.68971 11.6307 4.99779C10.8295 4.30588 9.85539 3.95939 8.70833 3.95833C7.56128 3.95728 6.58747 4.30376 5.78692 4.99779C4.98636 5.69182 4.58517 6.53283 4.58333 7.52083C4.5815 8.50883 4.98269 9.35011 5.78692 10.0447C6.59114 10.7392 7.56494 11.0854 8.70833 11.0833Z" fill="#7F7F7F"/>
</svg>
